<?xml version="1.0" encoding="utf-8"?>
<!-- Generator: Adobe Illustrator 23.0.3, SVG Export Plug-In . SVG Version: 6.00 Build 0)  -->
<svg version="1.1" id="Слой_1" xmlns="http://www.w3.org/2000/svg" xmlns:xlink="http://www.w3.org/1999/xlink" x="0px" y="0px"
	 viewBox="0 0 371 77" style="enable-background:new 0 0 371 77;" xml:space="preserve">
<style type="text/css">
	.st0{fill:#C70112;}
	.st1{fill:#FFFFFF;}
</style>
<g>
	<polygon class="st0" points="203.9,8 80.7,8 80.7,68.5 220.2,68.5 220.2,24.3 	"/>
	<g>
		<path class="st1" d="M120.8,15.2H91.2c-0.4,0-0.8,0.2-1,0.6l-3.7,6.7c-0.2,0.4-0.2,0.8,0,1.2c0.2,0.4,0.6,0.6,1,0.6h11.9v33.2
			c0,0.6,0.5,1.2,1.2,1.2h7.3c0.6,0,1.2-0.5,1.2-1.2V24.2h11.9c0.6,0,1.2-0.5,1.2-1.2v-6.7C122,15.7,121.5,15.2,120.8,15.2z"/>
		<path class="st1" d="M146.5,26c-0.1-0.3-0.4-0.6-0.7-0.7c-1.3-0.4-2.8-0.6-4.3-0.6c-4-0.1-7.4,1.4-9.8,4.4v-2.7
			c0-0.6-0.5-1.2-1.2-1.2h-7.1c-0.6,0-1.2,0.5-1.2,1.2v31c0,0.6,0.5,1.2,1.2,1.2h7.1c0.6,0,1.2-0.5,1.2-1.2V45.7
			c0-7.1,3.4-11.1,9.4-11.1h0.4c0.4,0,0.8-0.2,1-0.6c0,0,2.4-4.4,3.9-7C146.6,26.7,146.6,26.3,146.5,26z"/>
		<path class="st1" d="M160,24.7c-9.3,0-16.3,7.4-16.3,17.3c0,10.1,7.2,17.3,17.1,17.3c5.6,0,10.1-2.1,13.6-6.2
			c0.4-0.5,0.3-1.2-0.1-1.6l-4.2-3.7c-0.5-0.4-1.1-0.4-1.6,0c-2.4,2.4-4.6,3.4-7.6,3.4c-3.8,0-6.5-2-7.5-5.5h21.3c0.6,0,1-0.4,1.1-1
			c0.1-0.5,0.1-1.8,0.1-2.2C176,33.6,171.1,24.7,160,24.7z M160,32.8c3.4,0,5.7,2.2,6.5,5.8h-13.1C154.2,35,156.8,32.8,160,32.8z"/>
		<path class="st1" d="M196.9,24.7c-9.9,0-17.7,7.6-17.7,17.3c0,9.7,7.7,17.3,17.6,17.3c10,0,17.8-7.6,17.8-17.3
			C214.5,32.3,206.8,24.7,196.9,24.7z M196.9,50.8c-4.6,0-8.3-3.9-8.3-8.8c0-5.2,3.4-8.8,8.2-8.8c4.8,0,8.3,3.8,8.3,8.8
			C205.1,47.1,201.6,50.8,196.9,50.8z"/>
	</g>
	<g>
		<path d="M265.2,45.1c-0.3-0.4-0.9-0.4-1.3,0c-1.9,1.8-3.8,3.1-5.5,4c-1.7,0.8-3.7,1.3-6,1.3c-3.7,0-6.8-1.3-9.3-4.1
			c-2.5-2.7-3.7-6.1-3.7-10c0-2.6,0.6-5,1.7-7.2c1.1-2.1,2.7-3.8,4.7-5.1c2-1.2,4.2-1.9,6.7-1.9c2.1,0,4.1,0.4,5.8,1.3
			c1.8,0.9,3.6,2.1,5.4,3.7c0.2,0.2,0.4,0.3,0.7,0.2c0.2,0,0.5-0.1,0.6-0.3l4.7-5.5c0.3-0.4,0.3-0.9-0.1-1.3c-2.3-2.2-4.8-3.9-7.4-5
			c-2.7-1.2-5.9-1.8-9.7-1.8c-3.2,0-6.3,0.6-9.1,1.8c-2.8,1.2-5.3,2.8-7.2,4.9c-2,2-3.5,4.5-4.6,7.2c-1.1,2.8-1.7,5.7-1.7,8.8
			c0,4.2,1,8,2.9,11.5c1.9,3.5,4.6,6.2,8,8.2c3.4,2,7.2,3,11.4,3c2.6,0,5.1-0.3,7.2-1c2.2-0.7,4.1-1.5,5.7-2.6
			c1.6-1.1,3.2-2.4,4.8-4.1c0.3-0.4,0.3-0.9,0-1.3L265.2,45.1z"/>
		<path d="M298.7,26.3c-2.7-1.5-5.8-2.3-9.1-2.3c-3.3,0-6.4,0.8-9.1,2.4c-2.7,1.6-4.9,3.7-6.4,6.4c-1.5,2.7-2.3,5.6-2.3,8.7
			c0,3.2,0.8,6.1,2.3,8.8c1.5,2.7,3.7,4.8,6.4,6.4c2.7,1.6,5.8,2.4,9.1,2.4c2.5,0,4.9-0.5,7.1-1.4c2.2-0.9,4.1-2.2,5.7-3.8
			c1.6-1.6,2.8-3.5,3.7-5.6c0.9-2.1,1.4-4.4,1.4-6.8c0-3.2-0.8-6.1-2.3-8.8C303.6,30,301.4,27.8,298.7,26.3z M289.5,32.1
			c2.6,0,4.6,0.9,6.3,2.7c1.7,1.8,2.5,4,2.5,6.6c0,2.7-0.8,4.9-2.4,6.7c-1.6,1.8-3.6,2.7-6.3,2.7c-2.5,0-4.6-0.9-6.3-2.7
			c-1.7-1.9-2.5-4-2.5-6.6c0-2.7,0.8-4.9,2.4-6.7C284.8,32.9,286.9,32.1,289.5,32.1z"/>
		<path d="M330.6,24H330c-2.6,0-4.9,0.7-6.8,2.1c-1.1,0.8-2.1,1.8-2.9,3v-3.6c0-0.5-0.4-0.9-0.9-0.9h-7.3c-0.5,0-0.9,0.4-0.9,0.9
			v31.8c0,0.5,0.4,0.9,0.9,0.9h7.3c0.5,0,0.9-0.4,0.9-0.9V45.2c0-3.8,0.9-6.8,2.7-8.7c1.8-2,4.2-2.9,7.2-2.9h0.4
			c0.5,0,0.9-0.4,0.9-0.9v-7.7C331.5,24.4,331.1,24,330.6,24z"/>
		<path d="M364.4,36.4c-0.4-1.8-1.1-3.4-1.9-4.9c-0.9-1.5-2-2.9-3.2-4c-1.3-1.1-2.8-2-4.6-2.7c-1.8-0.6-3.7-1-5.8-1
			c-3.1,0-6,0.8-8.5,2.4c-2.5,1.6-4.5,3.7-5.9,6.4c-1.4,2.6-2.1,5.6-2.1,8.7c0,3.4,0.8,6.5,2.3,9.1c1.5,2.7,3.6,4.8,6.2,6.2
			c2.6,1.4,5.5,2.2,8.7,2.2c5.6,0,10.3-2.1,13.7-6.3c0.3-0.4,0.3-0.9-0.1-1.3l-4.3-3.8c-0.4-0.3-0.9-0.3-1.2,0
			c-1.2,1.2-2.5,2.1-3.7,2.7c-1.2,0.6-2.6,0.8-4.2,0.8c-2.2,0-4-0.6-5.5-1.9c-1.3-1.1-2.1-2.5-2.6-4.3H364c0.4,0,0.8-0.3,0.9-0.8
			c0.1-0.5,0.1-1.2,0.1-2.2C365,40,364.8,38.2,364.4,36.4z M348.8,31.7c2.1,0,3.7,0.7,4.9,2c1.1,1.2,1.8,2.7,2.1,4.5h-14.2
			c0.4-1.8,1.2-3.3,2.3-4.5C345.3,32.4,346.9,31.7,348.8,31.7z"/>
	</g>
	<g>
		<g>
			<g>
				<g>
					<polygon points="22.4,18.9 8,27.8 22.4,36.9 36.7,27.8 					"/>
				</g>
			</g>
			<g>
				<g>
					<polygon points="39.2,8 24.7,16.9 39.2,25.9 53.4,16.9 					"/>
				</g>
			</g>
			<g>
				<g>
					<polygon points="55.9,18.9 41.5,27.8 55.9,36.9 70.2,27.8 					"/>
				</g>
			</g>
		</g>
		<g>
			<polygon points="39.1,60.5 13.7,45.3 8,48.5 39.1,67.5 70.2,48.5 64.3,45.3 			"/>
			<polygon points="70.2,38.5 64.3,35.2 55.7,40.4 39.2,30.1 22.4,40.5 13.7,35.2 8,38.5 39.1,57.5 			"/>
		</g>
	</g>
</g>
</svg>
